<svg width="103" height="20" viewBox="0 0 103 20" fill="none" xmlns="http://www.w3.org/2000/svg">
<path d="M24 20H2.21777C0.995053 20 0 19.0278 0 17.833C0.000161608 16.6384 0.995152 15.667 2.21777 15.667H24V20ZM44 12.1992H32.3857V15.6025H44V20H30.1934C28.984 20 28 19.013 28 17.8008V10C28 8.78748 28.984 7.80078 30.1934 7.80078H39.6133V4.39746H30.1934C28.9842 4.39746 28.0002 3.41157 28 2.19922C28 0.986698 28.984 0 30.1934 0H44V12.1992ZM51.666 20H47.333V0H51.666V20ZM71.666 20H57.8818C56.6603 20 55.666 19.0278 55.666 17.833C55.6662 16.6384 56.6604 15.667 57.8818 15.667H71.666V20ZM79.666 0V20H75.333V0H79.666ZM24 4.44629H21.5986V7.88672H24V12.333H2.2207C0.996198 12.333 0.000111107 11.3362 0 10.1104C0 8.88476 0.99613 7.88673 2.2207 7.88672H3.0498V4.44629H2.2207C0.99613 4.44627 0 3.44857 0 2.22266C8.91986e-05 0.997143 0.996184 1.57019e-05 2.2207 0H24V4.44629ZM71.666 12H57.8818C56.6603 12 55.666 11.0278 55.666 9.83301C55.6662 8.63836 56.6604 7.66699 57.8818 7.66699H71.666V12ZM7.33301 7.66699H17V4.33301H7.33301V7.66699ZM71.666 4.33301H57.8818C56.6604 4.33301 55.6662 3.36162 55.666 2.16699C55.666 0.97222 56.6603 0 57.8818 0H71.666V4.33301Z" fill="#EF4125"/>
<path d="M87.6667 14.667C89.1392 14.6672 90.3326 15.8605 90.3328 17.333C90.3328 18.8056 89.1393 19.9998 87.6667 20C86.194 20 84.9998 18.8058 84.9998 17.333C84.9999 15.8604 86.1941 14.667 87.6667 14.667ZM97.9998 0C100.761 8.14319e-05 103 2.23864 103 5C103 7.76136 100.761 9.99992 97.9998 10C95.2383 10 92.9998 7.76141 92.9998 5C92.9998 2.23859 95.2383 0 97.9998 0Z" fill="#EF4125"/>
</svg>
